<svg width="50" height="48" viewBox="0 0 50 48" fill="none" xmlns="http://www.w3.org/2000/svg">
<path d="M45.2651 31.2018C45.8063 30.3722 46.9552 28.1128 47.477 27.0911C47.5473 26.9534 47.5917 26.8132 47.6249 26.6718C51.1459 19.5082 50.6702 6.91129 46.7402 3.04134C42.7553 -0.882607 29.7189 -0.971833 22.5969 2.5553C21.5594 3.06917 19.5059 3.96623 18.3908 4.67564C16.6447 5.78648 14.9256 6.92113 14.8768 8.875C14.8382 10.4186 17.0706 12.5603 16.6971 13.4928C15.8593 15.5838 13.7779 14.1967 10.9455 17.7763C9.0864 20.1258 11.0411 23.7139 10.6966 24.3075C8.91391 27.3794 5.3254 25.9708 3.01101 27.2164C1.33404 28.119 0.418734 29.768 0.0401093 30.6128C-0.0945136 30.9133 0.125894 31.2604 0.460465 31.2674C1.16269 31.2822 1.70268 30.934 3.55239 30.6372C5.95936 30.251 7.50242 29.2428 8.20282 29.9749C8.56173 30.35 6.32935 30.9788 5.87883 31.0989C4.67273 31.42 3.00983 31.7181 2.33653 32.8714C2.18156 33.1371 2.28702 33.4796 2.56837 33.6155C3.61742 34.122 4.79132 34.7014 6.65911 34.216C8.61374 33.7081 9.92692 32.3095 10.9425 33.1966C11.597 33.7685 5.17949 35.6411 5.63704 36.961C5.96112 37.8959 9.34527 38.6967 11.9321 36.5605C12.6591 35.9602 13.3964 35.2327 13.6172 35.7893C14.1829 37.2151 10.3324 38.6225 10.1893 41.2312C10.1828 41.3509 10.2716 41.4547 10.3862 41.4963C14.1095 42.8503 15.3159 37.9316 16.0761 38.2082C18.2196 38.988 13.0672 41.7821 13.9431 44.9923C13.9771 45.1165 14.1025 45.2012 14.2323 45.1913C15.1274 45.1223 16.0807 44.984 17.4598 43.626C18.5698 42.5329 18.4986 40.6902 19.1582 40.7651C19.8177 40.8399 18.8061 43.0317 18.0405 44.6428C17.4603 45.864 17.028 47.009 16.973 47.6491C16.9535 47.8783 17.1901 48.0544 17.412 47.9845C20.9322 46.8768 21.9902 44.7543 22.1923 44.0823C22.8444 41.9182 22.8209 39.7379 24.9066 38.4138C25.5342 38.0897 29.3102 39.992 31.7656 38.2782C35.1905 35.8878 34.4938 33.3795 36.1167 32.6157C37.0637 32.2478 39.2623 34.299 40.7162 34.2512C42.7481 34.1842 44.1416 32.9241 45.2651 31.2018Z" fill="url(#paint0_linear_1341_194)"/>
<path d="M26.3976 29.3385C27.8893 28.3635 29.9016 28.7642 30.8918 30.233C31.8819 31.7019 31.4753 33.6838 29.9836 34.6588C28.4918 35.6336 26.4795 35.2331 25.4894 33.7642C24.4993 32.2953 24.9059 30.3135 26.3976 29.3385Z" fill="black"/>
<path d="M17.3058 27.2408C18.3977 26.5855 17.8367 28.4991 19.1554 30.0152C19.1837 30.0479 19.3029 30.1652 19.3361 30.1929C20.876 31.4916 22.8189 30.9394 22.1525 32.0152C21.9779 32.2946 19.9551 33.5295 17.8507 31.4781C15.7659 29.4046 17.0232 27.4106 17.3058 27.2408Z" fill="black"/>
<path d="M15.5285 18.6353C17.0202 17.6604 19.0324 18.0611 20.0226 19.5299C21.0127 20.9988 20.6062 22.9807 19.1144 23.9556C17.6227 24.9305 15.6104 24.53 14.6203 23.0611C13.6302 21.5922 14.0368 19.6103 15.5285 18.6353Z" fill="black"/>
<defs>
<linearGradient id="paint0_linear_1341_194" x1="40.5" y1="9.75" x2="14.2798" y2="36.0289" gradientUnits="userSpaceOnUse">
<stop stop-color="#EF4FFF"/>
<stop offset="0.591346" stop-color="#C711E1"/>
<stop offset="1" stop-color="#7F52FF"/>
</linearGradient>
</defs>
</svg>
