<?xml version="1.0" encoding="UTF-8"?>
<svg id="Layer_3" data-name="Layer 3" xmlns="http://www.w3.org/2000/svg" width="96" height="96" viewBox="0 0 96 96">
    <g fill="#fff">
        <rect x="18.0623" y="8" width="69.9377" height="19.92102"/>
        <path d="m67.56953,58.25143c.04557.69469.07617,1.39328.07617,2.09904,0,6.59792-1.99804,12.72837-5.41991,17.82232h25.77403v-19.92136h-20.43029Z"/>
        <path d="m52.10993,32.90929c7.36066,4.4253,12.78773,11.72963,14.73825,20.35367h21.15165v-20.35367h-35.88989Z"/>
    </g>
    <path d="m35.64838,32.70094c-15.2695,0-27.64838,12.37939-27.64838,27.64953,0,5.72158,1.73828,11.03689,4.71483,15.44787l17.79683-17.79758-12.49672-.00065v-9.93854l30.01165.00065v29.80651l-9.98175-.00065v-12.32666l-17.78056,17.7813c4.39843,2.95194,9.68878,4.67727,15.38408,4.67727,15.2695,0,27.64838-12.37939,27.64838-27.64953s-12.37888-27.64953-27.64838-27.64953Z" fill="#b74af7"/>
</svg>
